<svg xmlns="http://www.w3.org/2000/svg" viewBox="0 0 64 64">
  <defs>
    <linearGradient id="warm" x1="0" y1="0" x2="1" y2="1">
      <stop offset="0%" stop-color="#FFA64D"/>
      <stop offset="100%" stop-color="#FF4D62"/>
    </linearGradient>
    <linearGradient id="cool" x1="1" y1="0" x2="0" y2="1">
      <stop offset="0%" stop-color="#35E0FF"/>
      <stop offset="100%" stop-color="#29C4B5"/>
    </linearGradient>
  </defs>
  <!-- Interlocking curves -->
  <path d="M16 40c-4-6-3-14 4-19 8-6 19-6 26 0 3 2 5 5 6 8" fill="none" stroke="url(#warm)" stroke-width="9" stroke-linecap="round"/>
  <path d="M48 24c5 6 4 14-3 19-8 6-19 6-26 0-3-2-5-5-6-8" fill="none" stroke="url(#cool)" stroke-width="9" stroke-linecap="round"/>

  <!-- Droplets (simplified teardrops as circles for clarity/legibility at small sizes) -->
  <circle cx="10" cy="48" r="3.4" fill="#7C3AED"/>
  <circle cx="12" cy="16" r="3.6" fill="#7C3AED"/>
  <circle cx="20" cy="54" r="3.6" fill="#3B82F6"/>
  <circle cx="44" cy="10" r="3.8" fill="#22D3EE"/>
  <circle cx="54" cy="46" r="3.6" fill="#34D399"/>
  <circle cx="54" cy="20" r="3.6" fill="#F59E0B"/>
  <circle cx="44" cy="54" r="3.2" fill="#06B6D4"/>
</svg>
